<svg width="19" height="17" fill="none" xmlns="http://www.w3.org/2000/svg"><path d="M9.444 17c-.301 0-.602-.1-.802-.4-5.416-6.1-6.72-7.5-7.02-7.9C.92 7.8.519 6.6.519 5.4c0-3 2.406-5.4 5.515-5.4 1.304 0 2.507.5 3.51 1.3C10.547.5 11.851 0 13.054 0c3.008 0 5.516 2.4 5.516 5.4 0 1.3-.502 2.5-1.304 3.4l-7.02 7.9c-.2.2-.401.3-.802.3zM3.427 7.5c.3.4 3.51 4 6.117 6.9l6.218-7c.501-.5.702-1.2.702-2 0-1.8-1.505-3.3-3.31-3.3-1.002 0-2.005.5-2.707 1.3-.301.3-.602.4-.903.4-.3 0-.602-.2-.802-.4-.702-.8-1.705-1.3-2.708-1.3-1.805 0-3.31 1.5-3.31 3.3-.1.9.302 1.6.703 2.1-.1 0-.1 0 0 0z" fill="#000"/></svg>