<svg width="84" height="84" fill="none" xmlns="http://www.w3.org/2000/svg"><path d="M74.9 57.7H9.1C6.8 57.7 5 59.6 5 62v3.5c0 2.4 1.9 4.3 4.1 4.3h.9v1.1c0 5.5 4.3 10.1 9.6 10.1h44.6c5.3 0 9.6-4.5 9.6-10.1v-1.1h.9c2.3 0 4.1-1.9 4.1-4.3V62c.2-2.3-1.7-4.3-3.9-4.3zM71 70.9c0 3.9-3 7-6.7 7H19.6c-3.7 0-6.7-3.2-6.7-7v-1.1H71v1.1zm5.1-5.4c0 .7-.6 1.3-1.2 1.3H9c-.7 0-1.2-.6-1.2-1.3V62c0-.7.6-1.3 1.2-1.3h65.8c.7 0 1.2.6 1.2 1.3.1 0 .1 3.5.1 3.5zM20.6 49.4l5.4 4.1 5.3-4.1 5.3 4.1 5.3-4.1 5.4 4.1 5.3-4.1 5.3 4.1 5.4-4.1 5.3 4.1 6.2-4.7-1.7-2.5-4.5 3.4-5.3-4.1-5.4 4.1-5.3-4.1-5.3 4.1-5.4-4.1-5.3 4.1-5.3-4.1-5.3 4.1-5.4-4.1-5.3 4.1-4.5-3.4-1.7 2.5 6.2 4.7 5.3-4.1zM13 42.5h60.8c0-.6.1-1.2.1-1.9v-1.2C73.2 23.7 59.2 11 42 11c-17.3 0-31.3 12.7-32 28.5v1.2c0 .6 0 1.3.1 1.9H13v-.1zM42 14c15.6 0 28.4 11.3 29 25.5H13C13.6 25.4 26.4 14 42 14z" fill="#81B3D2"/><path d="M42 28.3c1.05 0 1.9-.895 1.9-2s-.85-2-1.9-2c-1.05 0-1.9.895-1.9 2s.85 2 1.9 2zm-7.8-5.1c1.05 0 1.9-.895 1.9-2s-.85-2-1.9-2c-1.05 0-1.9.895-1.9 2s.85 2 1.9 2zm15.5 0c1.05 0 1.9-.895 1.9-2s-.85-2-1.9-2c-1.05 0-1.9.895-1.9 2s.85 2 1.9 2z" fill="#81B3D2"/></svg>