<svg width="139" height="70" fill="none" xmlns="http://www.w3.org/2000/svg"><path d="M139 0H0l59.93 65.65a12.7 12.7 0 0019.14 0L139 0z" fill="#81B3D3"/><path d="M36.8.5L69 38.2 101.09.7 36.8.5z" fill="#23A9E1"/><path d="M61.27 14.63h17.35c-1.3-.8-4.41-4.58-6.01-3.19-.1.1-4.92-5.67-8.03-2.88-2.7 2.48-4-.3-7.02 1.59-3.6 2.39 2 3.68 3.71 4.47zm26.78-3.49l-9.83.1c3.91-4.47 5.62-3.98 9.83-.1z" fill="#fff"/><path d="M97.88 3.58V1.2h2.1l-2.1 2.4zm-49.34 9.35c.1.1 2.4-2.38 6.11-4.87 3.41-2.29 8.63-4.88 14.44-4.88 5.82 0 11.14 2.69 14.55 4.98 3.7 2.39 6.01 4.77 6.11 4.87l-2.5 2.99c-4.52.6-7.73 3.88-12.14 3.18-2.2-.4-2.3-1.59-2.9-2.88-.5-1-1.31-.8-2.31-1.2-.9-.4-1.5-1.1-3.41-.7-1.6.4-1.8 2.9-3.91 2.8-1.1-.1-1.2-1.6-2.81-3.59-4.11-4.87-7.92-4.18-10.53.3L68.89 37.1 48.54 12.93zM40.1 1.2v1.9l-1.6-1.9h1.6zm54.06 0h3.2v2.99l-3.2 3.78V1.19zm-4.12 11.35V1.19h3.51v7.37l-3.5 3.98c.1 0 0 0 0 0zm-.5-10.35v9.85a26.06 26.06 0 00-3.6-2.99l3.6-6.86zm-4.1-.3v6.77c-.51-.3-.91-.7-1.51-1-.7-.4-1.4-.9-2.2-1.3l3.7-4.47zm-4.42-.2v4.28c-1-.5-2.1-1-3.11-1.5l3.11-2.78zm.6-.5h3.71l-3.7 4.58V1.19zm4.31 0h3.61l-3.6 7.07V1.19zm-8.82 0h3.9l-3.5 3.09c-.1 0-.2-.1-.3-.1l-.1-2.99zm-.5.4v2.39a15.97 15.97 0 00-3.11-.9l3.1-1.49zm-4.22 0v1.3l-2.2-.3 2.2-1zm-6.82 0l2.21 1c-.8 0-1.5.1-2.2.3V1.6zm-4.1 0l3.1 1.5a15.97 15.97 0 00-3.1.89v-2.4zm3.6 1.2l-3.3-1.6h3.3v1.6zm3.51-.4l-2.8-1.3h2.8v1.3zm.7-1.2h2.91l-2.9 1.3V1.2zm3.72 0h3.2L73 2.8V1.2zM60.57 4.28l-3.5-3.09h3.9v2.99l-.4.1zm-3.6-2.59l3.1 2.69a17.83 17.83 0 00-3.11 1.49V1.69zm-4.32.2l3.6 4.48a22.63 22.63 0 00-3.6 2.38V1.9zm-4.21.3l3.6 6.96c-1.3 1-2.5 2-3.6 3.19V2.19zm3.7 5.97l-3.6-7.07h3.6v7.07zm4.32-2.49l-3.71-4.58h3.7v4.58zM43.82 7.46l-3.2-3.78V1.19h3.2v6.27zm.6-6.27h3.51v11.15l-3.5-4.18V1.19zM69.3 0H36.1v14.53L69 54.23l.2-.3 33.09-39V0h-33z" fill="#491213"/><path d="M66.39 45.77l2.6-4.18 2.61 4.18-2.6 4.17-2.61-4.17z" fill="#23A9E1"/><path d="M74.41 30.44c-3.4-1.99-2.6-3.48.2-4.87 1.5-.7 4.81-3.38 6.12-2.49l-6.32 7.36zm-2.3 2.5c-2.01-.1-4.32-.4-6.32.1 1.2.29 4.2 1.18 1.4 1.88 1 1.4 2.6 1.3 3.61.1-.4-.2-.7-.5-1-.7 1.1-.3 2.1-.9 2.3-1.39zm1.2-1.6c-.9-.8-1.9-.8-2.71 0-1.2-2.09-5.42-1.4-7.42-1.7 1.1 2.6 9.63 3.1 10.13 1.7zm-6.82-2.19c-1.6-.5-6.82-.4-3.41-1.79 1.1-.4 6.72.1 3.4 1.79zm2-2.98c-.5-1.1.4-2.4 1.7-1.4 1.21.8-.6 2-1.7 1.4zm-2.9.1c-2.31.7-5.32-.8-1.6-1.5 2.3-.5 4.7.5 1.6 1.5.1 0-.1 0 0 0zm-2.61-6.17c-.5 1.59-1.5 1.89-1.4 0 .1-2.3 1.6-1.7 3.2-2.59 1.3-.7 2-3.38 4.32-1.79 1 .7 2.2.1 2.5 1.2 0-.1-2.9 6.66-1.3 6.66-3.21 0-1.8-3.78-.6-6.37-1.2.6-3.11 4.28-1.5 4.98-.8 1.1-3.42 2.58-4.72 1.49-1.1-1-.5-2.29-.5-3.58zm-4.01 2.78c-5.62 0-1.8-8.55.1-8.06 2.2.7 1.9 8.16-.1 8.06zm-6.22-8.15c-2.6-.1-1.5-2.6.3-3.09 1.7-.5 5.21 1.1 6.42 2.19-1.8.6-4.11.5-6.12.6-.2-2-.7-1.3-.6.3z" fill="#DC6243"/><path d="M72 25.67c-2.9-2.99 4.32-2.69 5.52-3.78.8.3 7.02-5.37 8.52-4.98-1.1 1.3-3.4 5.28-5.01 5.28-1.3 0-2.6-.2-3.61.7-1.5 1.39-3.91 2.08-5.42 2.78z" fill="#F49774"/><path d="M72.9 22.09c-1.6.9-3.1-2.49-.3-2.2 1.81.2 3.72-.2 5.42.1a5.9 5.9 0 01-5.11 2.1z" fill="#F4B1A4"/><path d="M51.24 20.8c.3.4.6.79.5 1.39 0 .4-.6 1-.2 1.19l1.51-1.79c-.4-.1-3.51-3.78-3.51-4.18l-2.1 1.1c.1.4.8 0 1.2 0 .5 0 .9.4 1.3.7-1.1.89-3.8 3.27-4.11 3.27-.1 0-.7-.4-.7 0 0 .2.6.7.7.8l1.4 1.7c.4-.2-.1-.5.1-.8.1-.2 3.21-2.69 3.91-3.39zm-3.4-4.48c.3-.1.4.3.6 0l-1.6-1.9c-.2-.3-.5-.6-.5 0 .1.4-4.02 3.69-4.22 3.79-.3.1-.5-.3-.7.1l1.4 1.69c.2.2.3.4.5.6.2.2.1-.4.1-.4-.1-.3.3-.6.6-.8 1-1 3.51-3.08 3.81-3.08zm-5.72-.6c-1.1.3-2.4-.1-2.7-1.3-.4-1.19.4-2.38 1.3-3.08.9-.7 2.3-.6 2.8.5.2.5.1 1.1-.1 1.6-.1.29-.4.59 0 .79.6-.7 1.1-1.4 1.7-2.1-.7-.39-1-1.09-1.5-1.68-.6-.7-1.3-1.4-2.3-1.5-1.9-.3-3.61 1.7-3.81 3.39-.1.9.2 1.79.8 2.58.5.6 1.2 1.1 1.6 1.8.2.1 1.8-.7 2.1-.8.2 0 .1-.1.1-.2-.5.2 0 0 0 0zM67.69 39.2c-.7-.5-2.6-2.98-3-3.48l-.2-.3-.2.1c-.1.1.1.4 0 .6-.5.8-3.72 3.18-3.92 3.38-.4.2-.8-.1-1 .2.5.6 1.8 2.29 2 2.29.3 0 .1-.5.1-.6.1-.2 1.7-1.6 2.31-2.1.2-.19.4.3.6.5.2.3.3.7.2 1-.1.2-.5.6-.2.8.4-.5 1.5-1.8 1.7-2 .2-.2-.4 0-.3-.1-.2.1-.5.2-.7 0-.1 0-.7-.69-.6-.79.3-.2.6-.6 1-.7.6-.1 1 1 1.1 1.4.1.4.1.8-.1 1.1-.1.3-.3.5 0 .6l1.41-1.9c0 .1-.1.1-.2 0-.1 0 .1.1 0 0zm-9.22-8.85c-.7 0-1.4.3-2.01.8a3.52 3.52 0 00-.5 4.77c1.3 1.69 3.4 1.89 5.11.7 1.4-1.2 1.6-3.29.5-4.78a4.05 4.05 0 00-3.1-1.5zm1.2 1.39c.9-.1 1.5.8 1.1 1.79-.4 1-1.4 1.99-2.4 2.39-1.2.5-2.01-.5-1.5-1.7.4-.99 1.4-1.98 2.4-2.38.1 0 .2-.1.4-.1zm-2.8-4.58c.3 0 .6.4.8 0l-1.41-1.69c-.4.2 0 .4-.1.6-.2.3-1.7.5-2.1.6.1-.4.6-1.7.8-1.8.4-.3.6.3.8-.1l-1.8-2.09c-.2-.2-.4-.7-.6-.4 0 0 0 1-.1 1.1-.1.2-.61 2.39-1.21 2.89-.3.3-1.5 1.29-1.8 1.39-.3.1-.5-.4-.81 0l1.6 1.89c.1.1.4.6.5.6.3.1 0-.6.1-.7.1-.3 1.61-1.79 2.31-1.89.9-.2 2-.5 3.01-.4.2 0-.2 0 0 0zm24.26 6.67c.1.4.2.9.1 1.3-.1.59-.6 1.88-1.4 1.48-.8-.4-1.4-1.1-2.11-1.69.5-.6 1-1.1 1.9-.8.2.1.4 0 .2-.2-.3-.2-2-1.29-2.1-1.19-.2.2.3.6.1 1-.1.3-.4.5-.6.8-.5-.4-1.2-.8-.7-1.5.4-.4.8-.8 1.4-.9.4-.1 1.2.3 1.3-.1-.7-.3-1.4-.69-2.1-.99.1.5-2.2 2.89-2.7 3.48-.1.1-.41.4-.41.5 0 .3.4.1.4.1.3-.1 4.41 3.28 4.51 3.58.1.2-.1.4 0 .5 0 0 .1.1.2.1.3-.3 2.91-3.88 3.51-3.98l-1.5-2.39c-.4.2-.1.7 0 .9zm-4.01 4.38c-1.3-.9-3.61.8-4.01.99-.7.3-1.2-.4-.8-1 .3-.5.9-.8 1.5-.8.2 0 .9.1.9 0 .1-.1.1-.1 0-.19-.6-.4-1.1-.8-1.7-1.1-.1.7-.9 1.1-1.3 1.6-.5.6-1.01 1.3-1.01 1.99 0 .7.4 1.39 1.1 1.69.7.4 1.5.1 2.21-.3.4-.3.8-.6 1.2-.8.6-.3 1.5 0 1.3.8-.2.7-.9 1.3-1.6 1.5-.4.1-.8.1-1.2-.1-.3-.1-.6-.5-.8-.1l2.3 1.59c.1-.5.3-.7.7-1 .5-.4.9-.9 1.3-1.4.81-.89 1.11-2.48-.1-3.37zm17.65-27.96c0 .1 0 .1 0 0l-.9 1-.8.99c-.2.2-.3.3 0 .5.5-.3 3.5 4.77 3.3 5.47-.5.2-4.51-3.28-4.61-3.48 0-.1.2-.7-.1-.6-.1 0-.5.6-.6.7l-.6.7c.2.29.3 0 .6 0 .2.1 1.2.89 1.5 1.09-.5 0-1.7.1-1.9.1-.6.1-.3-.4-.7-.6l-1.5 1.79-.91 1v.1c.2.2.1.1.4 0 .3-.1 4.31 3.18 4.41 3.38.2.3-.1.6.3.8l1.2-1.4c.1-.1.1-.1 0-.1-.3-.2-.3.1-.7.1-.3-.1-2.9-2.19-3.8-2.98l5.3-.2c.2 0 .71.6.71.8-.1.2-.3.39 0 .49.3-.4.6-.7.9-1.1l.1-.2c.1 0 .1-.1.1-.2l.1-.1c.3-.3 1.2-1.29 1.1-1.39-.3-.3-.4.3-.8 0-.2-.2-.8-1.19-.9-1.39-.2-.3.4-.6.6-.7.5-.3 2.1-.8 2.31.2 0 .2-.2.4-.1.5 0 0 .1.2.2.1l2.1-2.59-.2-.2c-.5.5-5.51-1.49-5.81-1.78-.1-.2-.1-.8-.3-.8zm-.2 2.59c.8.3 1.5.6 2.3.99l-.6.3c-.2.1-.4.3-.6.5l-1.1-1.8zm-6.62 7.66c-1.1-.1-2.2.4-3 1.29-1.21 1.5-1.11 3.68.4 4.87 1.5 1.2 3.7.9 4.9-.5 1.2-1.48 1.1-3.67-.4-4.87-.5-.4-1.2-.7-1.9-.8zm-1.4 1.59c.6 0 1.3.4 1.7.7.8.5 2.2 1.69 1.5 2.68 0-.1.1-.1-.1.1-.8.8-2.2.1-2.9-.5-.7-.5-2.01-1.69-1.2-2.68a1.7 1.7 0 011-.3zm-3.11 4.28c-1.2-.1-2.41.5-3.31 1.59-.6.8-1.3 1.49-1.9 2.29.2.3.5-.1.8.1.3.2 4.1 3.28 4.1 3.48.1.3-.2.4.1.6.1.1 2.91-3.39 3.22-3.98a2.94 2.94 0 00-.8-3.19c.1.1.2.1 0 0-.81-.6-1.51-.9-2.21-.9zm-1.1 1.59h.3c1.4.4 3.4 2.09 2.1 3.58l-.4.4c-.2.2-4.21-2.99-4.01-3.19.4-.5 1.3-.9 2-.8z" fill="#fff"/></svg>