<svg width="84" height="84" viewBox="0 0 84 84" fill="none" xmlns="http://www.w3.org/2000/svg"><path fill-rule="evenodd" clip-rule="evenodd" d="M42 8.38L4.44 45.94l2.12 2.12L14 40.62V78h-4v3h65v-3h-5V40.62l7.44 7.44 2.12-2.12L70 36.38V9H56v13.38l-14-14zm17 17l8 8V12h-8v13.38zm8 12.24l-25-25-25 25V78h50V37.62zM34 50v24h16V50H34zm3 21V53h10v18H37zM21 50h3v4h-3v-4zm9 0h-3v4h3v-4zm-9 6h3v4h-3v-4zm9 0h-3v4h3v-4zm24-6h3v4h-3v-4zm9 0h-3v4h3v-4zm-9 6h3v4h-3v-4zm9 0h-3v4h3v-4zM37 36a5 5 0 1110 0 5 5 0 01-10 0zm5-8a8 8 0 100 16 8 8 0 000-16z" fill="#81B3D2"/></svg>