<svg width="15" height="15" viewBox="0 0 15 15" fill="none" xmlns="http://www.w3.org/2000/svg">
<g opacity="0.3">
<path d="M5.5 10C5.8 10 6 9.8 6 9.5C6 9.2 5.8 9 5.5 9C5.2 9 5 9.2 5 9.5C5 9.8 5.2 10 5.5 10Z" fill="black"/>
<path d="M14 2H12V0H11V2H4V0H3V2H1C0.4 2 0 2.4 0 3V6V7V14C0 14.5 0.4 15 1 15H14C14.5 15 15 14.5 15 14V7V6V3C15 2.4 14.5 2 14 2ZM14 14H1V7H14V14ZM1 6V3H3V5H4V3H11V5H12V3H14V6H1Z" fill="black"/>
<path d="M7.5 10C7.8 10 8 9.8 8 9.5C8 9.2 7.8 9 7.5 9C7.2 9 7 9.2 7 9.5C7 9.8 7.2 10 7.5 10Z" fill="black"/>
<path d="M9.5 10C9.8 10 10 9.8 10 9.5C10 9.2 9.8 9 9.5 9C9.2 9 9 9.2 9 9.5C9 9.8 9.2 10 9.5 10Z" fill="black"/>
<path d="M5.5 11C5.2 11 5 11.2 5 11.5C5 11.8 5.2 12 5.5 12C5.8 12 6 11.8 6 11.5C6 11.2 5.8 11 5.5 11Z" fill="black"/>
<path d="M3.5 10C3.8 10 4 9.8 4 9.5C4 9.2 3.8 9 3.5 9C3.2 9 3 9.2 3 9.5C3 9.8 3.2 10 3.5 10Z" fill="black"/>
<path d="M3.5 11C3.2 11 3 11.2 3 11.5C3 11.8 3.2 12 3.5 12C3.8 12 4 11.8 4 11.5C4 11.2 3.8 11 3.5 11Z" fill="black"/>
<path d="M7.5 11C7.2 11 7 11.2 7 11.5C7 11.8 7.2 12 7.5 12C7.8 12 8 11.8 8 11.5C8 11.2 7.8 11 7.5 11Z" fill="black"/>
<path d="M9.5 11C9.2 11 9 11.2 9 11.5C9 11.8 9.2 12 9.5 12C9.8 12 10 11.8 10 11.5C10 11.2 9.8 11 9.5 11Z" fill="black"/>
<path d="M11.5 10C11.8 10 12 9.8 12 9.5C12 9.2 11.8 9 11.5 9C11.2 9 11 9.2 11 9.5C11 9.8 11.2 10 11.5 10Z" fill="black"/>
<path d="M11.5 11C11.2 11 11 11.2 11 11.5C11 11.8 11.2 12 11.5 12C11.8 12 12 11.8 12 11.5C12 11.2 11.8 11 11.5 11Z" fill="black"/>
</g>
</svg>
