<svg width="139" height="70" fill="none" xmlns="http://www.w3.org/2000/svg"><path d="M139 0H0l59.931 65.653c5.238 5.796 13.9 5.796 19.138 0L139 0z" fill="#81B3D3"/><path d="M36.804.497l32.191 37.707L101.086.696 36.804.497z" fill="#23A9E1"/><path d="M61.273 14.625h17.35c-1.304-.796-4.413-4.577-6.017-3.184-.1.1-4.914-5.67-8.023-2.885-2.708 2.487-4.012-.298-7.02 1.592-3.61 2.388 2.006 3.681 3.71 4.477zm26.776-3.482l-9.828.1c3.911-4.478 5.616-3.98 9.828-.1z" fill="#fff"/><path d="M97.877 3.582V1.194h2.106l-2.106 2.388zm-49.34 9.352c.1.1 2.407-2.388 6.117-4.875 3.41-2.289 8.625-4.875 14.441-4.875 5.817 0 11.132 2.686 14.541 4.974 3.711 2.388 6.017 4.776 6.118 4.875l-2.507 2.985c-4.513.597-7.722 3.88-12.135 3.184-2.206-.398-2.306-1.592-2.908-2.886-.501-.994-1.304-.795-2.306-1.193-.903-.398-1.505-1.095-3.41-.697-1.605.398-1.805 2.885-3.911 2.786-1.103-.1-1.204-1.592-2.808-3.582-4.112-4.875-7.922-4.178-10.53.299l19.656 23.18-20.358-24.175zm-8.424-11.74v1.89l-1.604-1.89h1.604zm54.053 0h3.21v2.985l-3.21 3.78V1.194zm-4.111 11.342V1.194h3.51v7.362l-3.51 3.98c.1 0 0 0 0 0zm-.502-10.347v9.85a26.064 26.064 0 00-3.61-2.985l3.61-6.865zm-4.111-.299v6.766c-.502-.299-.903-.697-1.505-.995-.702-.398-1.404-.896-2.206-1.294l3.71-4.477zm-4.413-.199V5.97c-1.003-.497-2.106-.995-3.109-1.492l3.11-2.786zm.602-.497h3.71l-3.71 4.576V1.194zm4.312 0h3.61l-3.61 7.064V1.194zm-8.825 0h3.911l-3.51 3.084c-.1 0-.2-.1-.3-.1l-.101-2.984zm-.501.398V3.98a15.973 15.973 0 00-3.11-.896l3.11-1.492zm-4.212 0v1.293c-.702-.1-1.404-.199-2.207-.298l2.207-.995zm-6.82 0l2.207.995c-.803 0-1.505.1-2.207.298V1.592zm-4.111 0l3.108 1.492a15.975 15.975 0 00-3.108.896V1.592zm3.61 1.194l-3.31-1.592h3.31v1.592zm3.51-.398l-2.808-1.294h2.808v1.294zm.702-1.194h2.908l-2.908 1.293V1.194zm3.71 0h3.21l-3.21 1.592V1.194zM60.571 4.278l-3.51-3.084h3.911v2.985l-.4.1zm-3.61-2.587l3.109 2.687a17.83 17.83 0 00-3.11 1.492V1.69zm-4.312.2l3.61 4.476a22.625 22.625 0 00-3.61 2.388V1.89zm-4.212.298l3.61 6.964c-1.304.995-2.507 1.99-3.61 3.184V2.189zm3.71 5.97l-3.61-7.065h3.61v7.064zM56.46 5.67l-3.711-4.577h3.71V5.67zM43.823 7.46l-3.21-3.78V1.194h3.21v6.268zm.602-6.267h3.51v11.143l-3.51-4.179V1.194zM69.296 0H36.102v14.526l32.893 39.696.2-.298 33.094-39V0H69.296z" fill="#491213"/><path d="M66.388 45.766l2.607-4.18 2.608 4.18-2.608 4.178-2.607-4.178z" fill="#23A9E1"/><path d="M74.41 30.444c-3.409-1.99-2.607-3.482.201-4.875 1.504-.697 4.814-3.383 6.117-2.487l-6.317 7.362zm-2.306 2.487c-2.006-.1-4.312-.398-6.318.1 1.204.298 4.212 1.194 1.404 1.89 1.003 1.393 2.608 1.293 3.61.1-.4-.2-.702-.498-1.002-.697 1.103-.298 2.105-.895 2.306-1.393zm1.204-1.592c-.903-.796-1.906-.796-2.708 0-1.204-2.089-5.415-1.392-7.421-1.691 1.103 2.587 9.627 3.084 10.129 1.691zm-6.82-2.188c-1.604-.498-6.82-.398-3.41-1.791 1.104-.398 6.72.1 3.41 1.79zm2.006-2.985c-.501-1.095.401-2.388 1.705-1.393 1.203.796-.602 1.99-1.705 1.393zm-2.908.1c-2.307.696-5.315-.797-1.605-1.493 2.307-.497 4.714.497 1.605 1.492.1 0-.1 0 0 0zm-2.608-6.169c-.501 1.592-1.504 1.89-1.404 0 .1-2.288 1.605-1.691 3.21-2.587 1.303-.696 2.005-3.382 4.312-1.79 1.002.696 2.206.099 2.507 1.193 0-.1-2.908 6.666-1.304 6.666-3.21 0-1.805-3.78-.602-6.367-1.203.597-3.109 4.278-1.504 4.974-.802 1.095-3.41 2.587-4.713 1.493-1.103-.995-.502-2.289-.502-3.582zm-4.011 2.786c-5.616 0-1.805-8.556.1-8.059 2.206.696 1.906 8.158-.1 8.059zm-6.218-8.158c-2.607-.1-1.504-2.587.301-3.085 1.705-.497 5.215 1.095 6.418 2.19-1.805.596-4.111.496-6.117.596-.2-1.99-.702-1.293-.602.299z" fill="#DC6243"/><path d="M72.004 25.669c-2.908-2.985 4.312-2.687 5.515-3.781.803.298 7.02-5.373 8.525-4.975-1.103 1.294-3.41 5.273-5.014 5.273-1.304 0-2.608-.199-3.61.697-1.505 1.393-3.912 2.09-5.416 2.786z" fill="#F49774"/><path d="M72.906 22.087c-1.605.895-3.109-2.487-.3-2.189 1.804.199 3.71-.199 5.415.1-1.304 1.492-3.11 2.288-5.115 2.089z" fill="#F4B1A4"/><path d="M51.245 20.794c.301.398.602.795.502 1.392 0 .398-.602.995-.201 1.194l1.504-1.79c-.4-.1-3.51-3.781-3.51-4.18l-2.106 1.095c.1.398.803 0 1.204 0 .501 0 .902.398 1.303.697-1.103.895-3.81 3.283-4.111 3.283-.1 0-.702-.398-.702 0 0 .199.602.696.702.796l1.404 1.691c.401-.199-.1-.497.1-.796.1-.199 3.21-2.686 3.911-3.382zm-3.41-4.477c.301-.1.402.298.602 0l-1.604-1.89c-.2-.3-.502-.598-.502 0 .1.397-4.011 3.68-4.212 3.78-.3.1-.501-.299-.702.1.502.596.903 1.094 1.404 1.69.2.2.301.399.502.598.2.199.1-.398.1-.398-.1-.299.3-.597.602-.796 1.003-.995 3.51-3.084 3.81-3.084zm-5.716-.598c-1.103.299-2.406-.099-2.707-1.293-.401-1.194.4-2.388 1.303-3.084.903-.697 2.307-.597 2.808.497.2.498.1 1.095-.1 1.592-.1.299-.401.597 0 .796.602-.696 1.103-1.393 1.705-2.09-.702-.397-1.003-1.094-1.504-1.69-.602-.697-1.304-1.393-2.307-1.493-1.905-.298-3.61 1.691-3.81 3.383-.101.895.2 1.79.802 2.587.501.597 1.203 1.094 1.604 1.79.2.1 1.805-.696 2.106-.795.2 0 .1-.1.1-.2-.501.2 0 0 0 0zM67.692 39.2c-.702-.497-2.608-2.984-3.009-3.482l-.2-.298-.2.099c-.101.1.1.398 0 .597-.502.796-3.711 3.184-3.912 3.383-.401.199-.802-.1-1.003.199.502.597 1.805 2.288 2.006 2.288.3 0 .1-.498.1-.597.1-.199 1.705-1.592 2.307-2.09.2-.198.4.3.601.498.2.299.301.697.2.995-.1.199-.5.597-.2.796.401-.498 1.505-1.79 1.705-1.99.2-.199-.4 0-.3-.1-.201.1-.502.2-.703 0-.1 0-.702-.696-.601-.795.3-.2.601-.597 1.002-.697.602-.1 1.003.995 1.104 1.393.1.398.1.796-.1 1.094-.1.299-.302.498 0 .598l1.403-1.89c0 .099-.1.099-.2 0-.1 0 .1.099 0 0zm-9.226-8.854c-.702 0-1.404.298-2.006.796-1.404 1.193-1.605 3.283-.502 4.775 1.304 1.691 3.41 1.89 5.115.696 1.404-1.193 1.605-3.283.501-4.775a4.048 4.048 0 00-3.108-1.492zm1.203 1.392c.903-.1 1.504.796 1.103 1.791-.401.995-1.404 1.99-2.407 2.388-1.203.498-2.005-.497-1.504-1.691.401-.995 1.404-1.99 2.407-2.388.1 0 .2-.1.401-.1zm-2.808-4.576c.3 0 .602.398.802 0l-1.404-1.692c-.4.2 0 .398-.1.598-.2.298-1.705.497-2.106.596.1-.398.602-1.69.802-1.79.402-.299.602.298.803-.1l-1.805-2.09c-.201-.198-.402-.696-.602-.397 0 0 0 .995-.1 1.094-.1.2-.602 2.388-1.204 2.886-.3.298-1.504 1.293-1.805 1.392-.3.1-.501-.398-.802 0l1.604 1.89c.1.1.401.598.502.598.3.1 0-.597.1-.697.1-.298 1.605-1.79 2.307-1.89.902-.2 2.005-.498 3.008-.398.2 0-.2 0 0 0zm24.269 6.666c.1.398.2.895.1 1.293-.1.597-.602 1.89-1.404 1.492-.802-.398-1.404-1.094-2.106-1.69.502-.598 1.003-1.095 1.906-.797.2.1.4 0 .2-.199-.3-.199-2.006-1.293-2.106-1.194-.2.2.301.597.1.995-.1.299-.4.498-.601.796-.502-.398-1.204-.796-.702-1.492.4-.398.802-.796 1.404-.896.4-.1 1.203.299 1.303-.1-.702-.298-1.404-.695-2.106-.994.1.497-2.206 2.885-2.707 3.482-.1.1-.401.398-.401.498 0 .298.4.1.4.1.302-.1 4.413 3.282 4.514 3.58.1.2-.1.399 0 .498 0 0 .1.1.2.1.3-.299 2.908-3.88 3.51-3.98l-1.504-2.388c-.401.2-.1.697 0 .896zm-4.012 4.377c-1.303-.895-3.61.796-4.01.995-.703.299-1.204-.398-.803-.995.3-.497.902-.796 1.504-.796.2 0 .903.1.903 0 .1-.1.1-.1 0-.199-.602-.398-1.103-.796-1.705-1.094-.1.696-.903 1.094-1.304 1.592-.501.597-1.003 1.293-1.003 1.99 0 .696.401 1.392 1.103 1.691.702.398 1.505.1 2.207-.298.4-.299.802-.598 1.203-.796.602-.299 1.504 0 1.304.796-.2.696-.903 1.293-1.605 1.492-.401.1-.802.1-1.203-.1-.301-.1-.602-.497-.803-.1l2.307 1.593c.1-.498.3-.697.702-.995.501-.398.903-.896 1.304-1.393.802-.896 1.103-2.487-.1-3.383zm17.65-27.956c0 .1 0 .1 0 0l-.902.995-.802.994c-.201.2-.301.299 0 .498.501-.299 3.51 4.775 3.309 5.472-.502.199-4.513-3.283-4.613-3.482 0-.1.2-.697-.1-.597-.1 0-.502.597-.602.696l-.602.697c.2.298.301 0 .602 0 .2.099 1.203.895 1.504 1.094-.501 0-1.705.1-1.905.1-.602.099-.301-.398-.702-.598l-1.504 1.791-.903.995v.1c.2.199.1.1.401 0 .3-.1 4.312 3.183 4.413 3.382.2.299-.1.597.3.796l1.204-1.393c.1-.1.1-.1 0-.1-.301-.198-.301.1-.702.1-.301-.1-2.908-2.188-3.811-2.984l5.315-.2c.2 0 .702.598.702.797-.1.199-.3.398 0 .497.3-.398.602-.696.903-1.094l.1-.2c.1 0 .1-.099.1-.198l.1-.1c.301-.298 1.204-1.293 1.104-1.393-.301-.298-.402.299-.803 0-.2-.199-.802-1.194-.902-1.393-.2-.298.4-.596.602-.696.5-.298 2.105-.796 2.306.2 0 .198-.2.397-.1.497 0 0 .1.198.2.099l2.106-2.587-.2-.199c-.502.498-5.516-1.492-5.817-1.79-.1-.2-.1-.796-.3-.796zm-.2 2.586c.802.299 1.504.597 2.306.995l-.601.299c-.2.1-.401.298-.602.497l-1.103-1.79zm-6.619 7.661c-1.103-.1-2.206.398-3.008 1.293-1.204 1.493-1.104 3.681.4 4.875 1.505 1.194 3.711.896 4.915-.497 1.203-1.492 1.103-3.681-.401-4.875-.502-.398-1.204-.697-1.906-.796zm-1.404 1.592c.602 0 1.304.398 1.705.696.802.498 2.206 1.692 1.504 2.686 0-.099.1-.099-.1.1-.802.796-2.206.1-2.908-.497-.702-.498-2.006-1.692-1.204-2.687a1.704 1.704 0 011.003-.298zm-3.109 4.278c-1.203-.1-2.407.497-3.31 1.592-.6.796-1.303 1.492-1.904 2.288.2.299.501-.1.802.1.3.199 4.111 3.283 4.111 3.482.1.298-.2.398.1.597.101.1 2.909-3.383 3.21-3.98a2.938 2.938 0 00-.802-3.184c.1.1.2.1 0 0-.803-.597-1.505-.895-2.207-.895zm-1.103 1.592h.301c1.404.398 3.41 2.09 2.106 3.581-.2.2 0 0-.401.398-.2.2-4.212-2.984-4.011-3.183.4-.498 1.303-.896 2.005-.796z" fill="#fff"/></svg>